<?xml version="1.0" encoding="utf-8"?>
<!-- Generator: Adobe Illustrator 15.1.0, SVG Export Plug-In . SVG Version: 6.00 Build 0)  -->
<!DOCTYPE svg PUBLIC "-//W3C//DTD SVG 1.1//EN" "http://www.w3.org/Graphics/SVG/1.1/DTD/svg11.dtd">
<svg version="1.1" id="Layer_1" xmlns="http://www.w3.org/2000/svg" xmlns:xlink="http://www.w3.org/1999/xlink" x="0px" y="0px"
	 width="512px" height="512px" viewBox="0 0 512 512" enable-background="new 0 0 512 512" xml:space="preserve">
<path fill-rule="evenodd" clip-rule="evenodd" fill="none" stroke="#000000" stroke-width="4" stroke-miterlimit="10" d="
	M255.54,87.014c9.091-0.192,15.491,1.648,21.558,3.317c7.188-0.277,14.378-0.553,21.564-0.83c7.353,1.684,13.446,4.803,19.071,6.634
	c8.135,2.649,16.273-0.671,24.878,2.488c4.842,1.778,9.057,6.782,13.268,8.292c2.486,0,4.977,0,7.463,0
	c5.096,1.314,12.226,3.113,16.585,5.806c3.212,1.984,5.364,6.369,8.293,8.292c4.741,3.116,11.955,2.143,16.585,4.975
	c3.938,2.411,9.815,7.007,12.437,10.781c0,0.828,0,1.658,0,2.487c2.291,2.468,11.648,4.37,14.928,6.635
	c5.527,3.816,6.495,8.991,9.95,14.926c4.424,3.04,8.844,6.082,13.268,9.122c2.659,3.364,5.099,8.164,6.634,12.439
	c0,1.382,0,2.764,0,4.145c2.258,4.54,9.07,7.489,11.61,12.439c2.224,4.331-0.186,9.813,0.827,14.098
	c0.57,2.399,4.703,4.491,5.807,6.634c1.377,2.67,2.736,7.629,3.317,9.95c1.42,5.689-3.786,7.793-3.317,11.611
	c0.271,2.2,4.208,6.6,4.978,9.12c2.655,8.724-3.429,13.239-4.978,17.413c-1.802,4.858,3.634,9.458,1.66,15.758
	c-1.714,5.466-7.768,9.39-9.124,13.267c-1.656,4.738,0.247,10.564-2.486,15.758c-2.281,4.329-10.309,8.439-11.61,10.781
	c-2.764,4.963-2.042,9.791-4.978,14.097c-3.631,5.331-9.906,5.925-14.924,9.951c-3.789,3.036-4.285,10.217-8.294,13.267
	c-3.502,2.666-8.308,5.852-12.438,7.464c-1.66,0.273-3.316,0.55-4.974,0.83c-4.14,2.699-6.319,8.816-10.78,11.607
	c-5.827,3.644-13.365,3.077-19.904,6.634c-5.018,2.729-9.161,8.388-14.924,10.78c-2.389,0.988-6.627,1.984-8.294,2.487
	c-3.594,0-7.188,0-10.78,0c-4.609,1.842-9.475,6.488-14.928,8.293c-5.014,1.66-10.97,2.093-17.411,1.66
	c-1.383-0.276-2.767-0.557-4.15-0.833c-4.7,1.144-11.866,5.148-17.41,6.637c-8.595,2.305-16.523-3.29-23.222-1.66
	c-12.478,3.04-21.435,3.813-33.998,0c-9.934-3.013-17.875,2.858-28.193,0c-3.953-1.097-8.432-4.541-11.61-5.804
	c-4.976,0-9.951,0-14.926,0c-6.14-1.656-14.148-3.37-19.073-6.634c-1.424-0.944-2.342-3.502-4.147-4.146c-3.04,0-6.08,0-9.12,0
	c-2.723-0.746-6.912-1.997-9.952-3.316c-3.715-1.613-8.743-4.721-11.609-7.464c-0.639-0.611-1.031-2.845-1.658-3.317
	c-3.003-2.254-12.016-2.206-15.756-4.146c-3.865-2.004-10.938-7.146-13.267-10.777c-1.093-1.707-0.111-3.047-1.659-4.15
	c-4.545-3.229-10.561-3.472-14.927-6.63c-3.006-2.18-6.666-7.329-8.292-10.78c-0.277-1.384-0.554-2.764-0.829-4.147
	c-4.425-4.693-12.069-6.09-15.756-11.61c-2.24-3.354-0.855-9.765-3.317-13.268c-1.106-0.554-2.211-1.106-3.318-1.657
	c-3.259-3.02-8.284-9.076-9.951-13.27c0-4.147,0-8.295,0-12.438c-0.744-1.829-4.063-3.367-4.975-4.975
	c-1.593-2.813-2.683-7.77-3.317-10.779c-1.132-5.386,3.691-7.73,2.489-12.441c-1.134-4.438-6.519-9.91-4.147-18.242
	c0.81-2.85,4.398-5.903,4.975-8.294c1.385-5.733-3.329-11.813-0.828-18.243c1.436-3.695,7.025-6.751,8.292-9.951
	c0.735-1.862-0.626-8.918,0.828-12.438c1.331-3.223,4.741-8.76,7.464-10.781c1.64-1.218,4.866-1.541,5.805-3.317
	c1.611-3.047,0.196-6.266,1.659-9.122c2.146-4.191,7.651-9.951,11.609-12.439c2.212-0.829,4.423-1.659,6.634-2.487
	c4.017-4.005,4.467-10.63,9.122-14.097c3.128-2.33,8.071-5.213,11.609-6.634c1.658-0.277,3.317-0.554,4.975-0.83
	c3.502-2.532,5.444-8.243,9.122-10.779c5.984-4.128,12.271-3.496,19.903-6.635c5.483-2.256,11.725-9.907,19.073-12.438
	c5.193-1.79,10.153,0.297,15.754-1.658c5.613-1.96,11.695-7.255,18.244-9.123c5.833-1.663,14.632,1.235,19.073,0
	c1.363-0.379,3.647-2.76,4.975-3.316c4.751-1.993,11.344-2.146,16.584-3.317C235.658,86.258,245.674,93.345,255.54,87.014z"/>
<path fill-rule="evenodd" clip-rule="evenodd" fill="none" stroke="#000000" stroke-width="4" stroke-miterlimit="10" d="
	M257.198,89.5c-2.233,1.389-7.717,1.611-9.952,2.489c0,0.276,0,0.551,0,0.828c0.277,0,0.554,0,0.83,0
	c5.529,3.04,11.058,6.082,16.584,9.122c14.081,9.856,22.108,22.18,46.439,22.39c0.276-0.554,0.55-1.105,0.826-1.659
	c-4.818-3.222-8.091-8.677-11.606-13.267C292.238,98.852,275.94,89.701,257.198,89.5z"/>
<path fill-rule="evenodd" clip-rule="evenodd" fill="none" stroke="#000000" stroke-width="4" stroke-miterlimit="10" d="
	M226.515,91.159c-3.502,2.124-13.466,2.539-17.413,4.146c0.752,0.898-0.065,0.069,0.829,0.829
	c5.208,3.897,13.136,4.515,19.073,7.464c17.007,8.449,24.596,17.308,50.584,15.755c0-0.553,0-1.105,0-1.658
	C263.554,107.699,251.965,91.783,226.515,91.159z"/>
<path fill-rule="evenodd" clip-rule="evenodd" fill="none" stroke="#000000" stroke-width="4" stroke-miterlimit="10" d="
	M340.951,132.621c-2.221-13.338-19.996-33.826-31.509-38.146c-6.113-2.291-14.975-1.787-23.221-1.658c0,0.553,0,1.107,0,1.658
	c0.276,0,0.554,0,0.83,0c5.489,5.765,12.66,10.055,18.244,15.756C315.047,120.192,321.451,132.304,340.951,132.621z"/>
<path fill-rule="evenodd" clip-rule="evenodd" fill="none" stroke="#000000" stroke-width="4" stroke-miterlimit="10" d="
	M247.246,119.354c0-0.83,0-1.658,0-2.488c-16.923-4.562-36.044-25.993-61.363-19.073c-4.699,1.935-9.399,3.871-14.098,5.806
	c0.754,0.899-0.064,0.071,0.83,0.83c4.643,3.01,12.849,2.198,18.243,4.145c8.937,3.226,18.621,8.218,27.365,10.78
	C226.637,121.82,238.787,119.639,247.246,119.354z"/>
<path fill-rule="evenodd" clip-rule="evenodd" fill="none" stroke="#000000" stroke-width="4" stroke-miterlimit="10" d="
	M369.146,145.06c-2.888-25.068-16.851-46.689-45.608-46.438c0,0.554,0,1.105,0,1.659
	C341.144,112.307,341.707,142.966,369.146,145.06z"/>
<path fill-rule="evenodd" clip-rule="evenodd" fill="none" stroke="#000000" stroke-width="4" stroke-miterlimit="10" d="
	M155.202,107.745c-5.578,3.744-12.78,3.69-16.586,9.121c-0.277,0-0.552,0-0.828,0c-0.822,0.838,0.816,0.82,0.828,0.83
	c5.077,3.14,15.199,0.174,21.561,1.658c21.689,5.062,31.51,8.684,54.729,3.317c0.277-0.553,0.553-1.105,0.83-1.658
	c-0.277,0-0.553,0-0.83,0C203.09,111.813,176.83,107.907,155.202,107.745z"/>
<path fill-rule="evenodd" clip-rule="evenodd" fill="none" stroke="#000000" stroke-width="4" stroke-miterlimit="10" d="
	M394.023,160.816c-2.024-23.231-3.617-39.763-21.561-47.268c-3.037-1.271-9.104-4.923-12.44-3.317c-0.273,0-0.551,0-0.827,0
	c0,0.554,0,1.107,0,1.659C374.727,124.575,367.664,158.585,394.023,160.816z"/>
<path fill-rule="evenodd" clip-rule="evenodd" fill="none" stroke="#000000" stroke-width="4" stroke-miterlimit="10" d="
	M252.223,119.354c-6.25,5.389-21.811,4.572-30.683,2.487c-6.242,2.296-13.661,5.429-21.56,7.464c-3.593,0-7.187,0-10.78,0
	c-4.466,1.856-8.63,6.612-14.098,8.292c-3.869,0.277-7.74,0.554-11.609,0.83c-3.803,1.392-7.228,6.931-10.78,9.122
	c-4.451,2.743-11.182,1.938-15.756,4.976c-3.871,2.569-5.995,8.891-9.951,11.609c-3.29,2.261-7.175,1.972-10.781,4.147
	c-2.675,1.613-2.419,5.635-4.145,8.292c-3.452,5.309-9.831,9.571-15.756,12.439c1.74,13.159-11.028,14.641-12.439,24.048
	c4.795,7.293-5.711,16.194-7.463,20.731c5.935,6.65-0.098,16.299-1.659,22.39c4.344,10.504,5.471,9.281,3.317,23.217
	c4.891,3.267,7.502,8.389,9.122,14.928c0,2.486,0,4.974,0,7.464c1.912,2.97,7.82,4.309,9.951,7.46
	c2.396,3.543,1.648,8.709,4.147,12.441c2.242,3.347,9.523,4.524,12.439,7.463c2.873,2.896,3.162,7.575,5.803,10.777
	c2.563,3.114,10.617,3.624,14.098,5.808c3.852,2.419,6.11,8.742,9.122,10.78c2.117,1.434,9.699,1.333,12.439,2.486
	c5.108,2.153,10.082,8.115,14.097,9.954c4.692,2.143,12.513,0.705,17.413,2.483c4.414,1.609,9.031,6.404,13.269,7.467
	c4.792,1.201,11.568-1.461,17.415,0c4.076,1.016,8.86,4.262,12.439,4.974c5.587,1.117,13.82-3.516,21.559-1.66
	c3.382,0.813,7.976,3.877,13.267,2.49c8.959-2.354,19.398-3.61,29.855-1.656c3.158-1.144,7.082-4.707,10.78-5.808
	c6.354-0.276,12.714-0.553,19.071-0.83c5.287-1.835,10.338-7.224,16.584-9.12c3.594-0.276,7.187-0.554,10.78-0.83
	c3.473-1.269,6.08-6.3,9.124-8.29c4.98-3.267,11.992-2.521,17.414-5.808c2.237-1.356,2.929-5.766,4.974-7.463
	c3.044-2.524,7.181-5.875,10.78-7.461c1.657-0.28,3.317-0.557,4.978-0.833c2.466-1.519,1.791-4.822,3.316-7.461
	c3.256-5.648,10.511-10.328,16.584-13.271c0.044-9.593,3.661-13.426,8.291-18.241c1.106-0.83,2.21-1.656,3.316-2.49
	c0-3.59,0-7.184,0-10.776c1.306-4.15,6.482-7.839,7.464-11.61c-0.83-4.145-1.66-8.291-2.486-12.438
	c0.81-3.719,5.007-8.942,4.146-11.611c-0.891-2.762-3.33-4.893-4.146-7.462c-1.458-4.584,2.254-13.224,1.656-14.928
	c-0.854-2.45-5.372-4.434-6.634-6.633c-1.63-2.848-2.595-7.729-3.316-10.781c0.276-1.658,0.553-3.317,0.83-4.975
	c-1.337-3.304-8.783-5.814-10.781-9.122c-2.122-3.518-1.849-8.237-4.144-11.609c-4.197-3.867-10.727-5.284-14.097-9.95
	c-1.869-2.583-2.406-7.325-4.978-9.122c-4.649-3.246-10.635-3.449-14.927-6.634c-2.724-2.02-4.626-7.605-7.461-9.122
	c-3.165-1.692-9.009-1.056-12.44-2.487c-2.561-1.07-6.685-3.229-9.124-4.977c-1.38-1.657-2.764-3.317-4.144-4.975
	c-4.146-0.277-8.294-0.552-12.44-0.829c-6.084-1.721-11.604-6.335-16.584-8.292c-5.527,0-11.058,0-16.584,0
	c-4.204-1.051-9.421-3.931-13.268-4.977c-3.061-0.83-7.269,0.547-9.12,0.83C268.254,124.144,258.594,121.768,252.223,119.354z"/>
<path fill-rule="evenodd" clip-rule="evenodd" fill="none" stroke="#000000" stroke-width="4" stroke-miterlimit="10" d="
	M107.934,135.109c6.953-0.113,13.063-3.313,20.731-1.658c20.044,4.324,41.565,3.335,56.388-4.147c0-0.277,0-0.553,0-0.828
	c-0.275,0-0.552,0-0.829,0c-2.807-1.996-6.931-1.365-10.78-2.489c-11.153-3.258-33.172-8.938-48.096-4.147
	c-7.359,2.364-11.371,7.894-17.415,10.781C107.934,133.451,107.934,134.279,107.934,135.109z"/>
<path fill-rule="evenodd" clip-rule="evenodd" fill="none" stroke="#000000" stroke-width="4" stroke-miterlimit="10" d="
	M413.925,179.06c0.645-18.819,8.598-35.321-6.634-46.439c-4.832-3.528-8.061-7.288-16.584-7.462c0,0.275,0,0.552,0,0.828
	c4.693,5.139,4.869,16.119,6.634,24.048c0,4.147,0,8.294,0,12.439c2.453,7.798,8.999,11.442,14.097,16.586
	C412.265,179.06,413.098,179.06,413.925,179.06z"/>
<path fill-rule="evenodd" clip-rule="evenodd" fill="none" stroke="#000000" stroke-width="4" stroke-miterlimit="10" d="
	M82.228,155.011c6.909-1.105,13.821-2.21,20.731-3.317c8.016,0,16.033,0,24.048,0c10.14-2.32,25.808-3.313,29.023-12.439
	c-0.551,0-1.105,0-1.658,0c-5.626-3.654-16.515-0.154-24.048-1.659C111.772,133.893,84.863,139.869,82.228,155.011z"/>
<path fill-rule="evenodd" clip-rule="evenodd" stroke="#000000" stroke-width="4" stroke-miterlimit="10" d="M218.223,138.426
	c10.504,0,21.009,0,31.512,0c-0.277,6.081-0.553,12.163-0.83,18.243c-6.512,2.797-6.236,7.067-5.804,16.586
	c2.187,2.537,2.939,6.487,5.804,8.292c-1.385,2.288-4.744,3.733-5.804,6.634c-0.277,4.975-0.553,9.952-0.83,14.927
	c-0.093,11.462-4.344,20.711-12.437,24.048c-3.212,1.325-8.11,0.827-12.439,0.829c-23.539,0.01-27.905-12.269-27.365-35.657
	c3.575-1.896,9.863-1.763,15.754-1.659c2.124,4.557,1.726,12.134,6.635,14.098c3.832,2.787,9.185-0.111,10.779-2.489
	c7.776-10.124-3.833-18.562-3.317-21.559c0.199-1.151,3.626-3.15,4.147-4.147c2.146-4.117,1.711-10.744,1.659-16.586
	c-4.139-2.065-5.945-2.45-5.806-9.121C217.987,148.151,218.13,143.047,218.223,138.426z"/>
<path fill-rule="evenodd" clip-rule="evenodd" stroke="#000000" stroke-width="4" stroke-miterlimit="10" d="M315.246,138.426
	c-1.106,10.502-2.213,21.008-3.32,31.512c-3.573,1.895-9.862,1.761-15.754,1.658c-3.947-10.202-0.162-15.535-15.754-14.927
	c-0.897,1.458-2.085,3.001-3.32,4.147c-0.678,8.952-0.958,16.417,4.978,20.731c-5.497,5.237-5.727,10.18-4.978,19.903
	c1.825,1.38,1.681,2.35,4.147,3.317c1.784,1.191,6.06,0.923,9.123,0.828c6.36-11.305,0.57-15.597,19.901-14.926
	c1.818,3.423,1.762,9.222,1.656,14.926c-2.558,4.343-1.461,10.939-4.143,14.928c-3.726,5.532-25.854,13.789-35.659,6.633
	c-9.37-3.107-12.997-13.606-13.267-25.706c-0.277-4.7-0.554-9.399-0.83-14.098c-1.026-2.343-4.334-4.4-5.804-6.633
	c10.251-7.11,3.457-26.438,9.951-37.317C267.046,135.243,301.398,138.263,315.246,138.426z"/>
<path fill-rule="evenodd" clip-rule="evenodd" fill="none" stroke="#000000" stroke-width="4" stroke-miterlimit="10" d="
	M419.731,143.402c-0.263,3.229,2.592,14.001,0.827,20.731c-4.612,17.618-4.09,24.436,6.634,35.658c0.553,0,1.106,0,1.66,0
	c1.002-3.912,3.566-6.846,4.977-9.952c4.042-8.908,4.839-17.804,4.974-30.682C431.721,153.054,431.603,146.654,419.731,143.402z"/>
<path fill-rule="evenodd" clip-rule="evenodd" fill="none" stroke="#000000" stroke-width="4" stroke-miterlimit="10" d="
	M60.667,179.06c8.019-0.999,17.13-5.257,24.878-7.464c6.08-0.553,12.162-1.106,18.242-1.658c9.538-2.451,24.332-6.87,27.367-15.756
	c-8.569,0-17.139,0-25.707,0c-2.396,1.402-6.563-0.084-9.952,0.829C80.358,159.086,62.995,162.269,60.667,179.06z"/>
<path fill-rule="evenodd" clip-rule="evenodd" fill="none" stroke="#000000" stroke-width="4" stroke-miterlimit="10" d="
	M439.633,222.181c0-0.83,0-1.658,0-2.488c10.47-7.378,17.806-25.182,17.411-41.462c-1.92-1.493-1.846-2.993-3.317-4.975
	c-3.036-2.489-6.077-4.975-9.12-7.464c-1.454,0.523-0.803,0.16-1.66,0.83c-1.63,2.573,0.392,7.297-0.827,10.779
	C439.413,185.128,421.396,218.55,439.633,222.181z"/>
<path fill-rule="evenodd" clip-rule="evenodd" fill="none" stroke="#000000" stroke-width="4" stroke-miterlimit="10" d="
	M45.741,204.767c5.893-0.97,10.86-5.38,15.756-7.464c11.988-5.104,26.798-5.853,37.315-12.439
	c4.324-2.708,6.874-7.673,10.781-10.781c0-0.828,0-1.658,0-2.487C83.9,171.624,47.074,180.342,45.741,204.767z"/>
<path fill-rule="evenodd" clip-rule="evenodd" fill="none" stroke="#000000" stroke-width="4" stroke-miterlimit="10" d="
	M460.364,190.669c-1.894,21.46-28.191,29.295-19.075,53.901c0.83,0.275,1.66,0.551,2.49,0.828
	c6.165-9.043,32.241-24.773,27.365-42.291c-1.414-5.075-5.679-8.484-8.294-12.439C462.021,190.669,461.193,190.669,460.364,190.669z
	"/>
<path fill-rule="evenodd" clip-rule="evenodd" fill="none" stroke="#000000" stroke-width="4" stroke-miterlimit="10" d="
	M37.449,232.131c0.828,0,1.658,0,2.486,0c12.451-17.612,48.85-15.098,53.073-40.634c-17.377,0.858-50.754,15.217-55.559,28.195
	C37.449,223.837,37.449,227.984,37.449,232.131z"/>
<path fill-rule="evenodd" clip-rule="evenodd" fill="none" stroke="#000000" stroke-width="4" stroke-miterlimit="10" d="
	M78.081,213.059c-2.716,2.978-6.731,3.193-10.781,4.975c-9.039,3.978-28.247,14.909-32.34,23.22
	c-2.488,5.053-0.243,14.163,0.83,18.243c0.829,0,1.659,0,2.487,0c10.853-16.139,41.779-21.6,42.292-45.609
	C79.739,213.612,78.911,213.335,78.081,213.059z"/>
<path fill-rule="evenodd" clip-rule="evenodd" fill="none" stroke="#000000" stroke-width="4" stroke-miterlimit="10" d="
	M440.463,268.619c10.328-1.494,37.595-23.828,38.142-34.83c2.939-4.403-2.136-13.846-4.974-15.756c-0.803-0.209-0.313-0.649-0.83,0
	c-3.158,3.062-4.788,7.186-7.46,10.781c-6.951,9.343-20.313,15.015-24.878,26.535C440.463,259.772,440.463,264.196,440.463,268.619z
	"/>
<path fill-rule="evenodd" clip-rule="evenodd" fill="none" stroke="#000000" stroke-width="4" stroke-miterlimit="10" d="
	M71.447,236.276c-5.411,6.941-16.144,11.271-23.219,16.586c-6.195,4.656-8.112,12.532-13.268,18.244
	c1.282,4.44,2.677,10.599,4.975,15.754c0.83,0.276,1.659,0.554,2.489,0.83c0-0.276,0-0.554,0-0.83
	c5.076-4.942,8.849-11.851,13.267-17.414c9.122-11.482,19.118-9.815,19.073-32.34c-0.277,0-0.553,0-0.828,0c0-0.277,0-0.553,0-0.83
	C73.106,236.276,72.277,236.276,71.447,236.276z"/>
<path stroke="#000000" stroke-miterlimit="10" d="M301.149,302.618c-15.478,0-30.962,0-46.439,0
	c0.554-3.044,1.106-6.084,1.659-9.124c3.105-0.756,3.5-0.766,4.145-4.144c-4.262-3.641-4.688-12.487-10.779-14.097
	c-1.173,4.993-5.007,11.65-8.292,14.924c0.523,1.454,0.16,0.807,0.828,1.66c0.813,0.661,2.276,1.197,3.317,1.656
	c0.83,3.04,1.66,6.08,2.488,9.124c-15.754,0-31.513,0-47.267,0c0-0.557,0-1.106,0-1.66c1.55-1.991,0.935-5.173,2.488-7.464
	c1.316-1.939,2.925-0.476,4.145-3.316c-3.307-2.599-4.094-8.467-7.462-10.781c-3.317-1.104-6.635-2.21-9.95-3.316
	c2.117-1.479,4.55-5.22,3.316-7.461c-0.57-4.049-3.396-8.51-6.635-9.953c-3.563-2.187-8.188-0.826-9.95-4.974
	c-1.94-2.455-2.874-6.998-3.317-10.781c0.842-1.021,1.339-3.48,2.488-4.147c4.604-2.676,25.184-0.842,32.34-0.83
	c3.489,0.007,8.556-0.636,10.781,0.83c2.208,1.455,2.436,3.661,2.487,7.464c-1.677,2.291-1.574,6.876-3.317,9.121
	c-2.213,1.453-5.198,0.931-6.634,3.316c4.822,5.095,9.22,13.567,12.439,19.9c0.277,0,0.554,0,0.829,0c0-0.273,0-0.55,0-0.83
	c4.25-4.211,9.681-13.108,11.61-19.07c0.208-0.8,0.65-0.314,0-0.83c-2.211-0.83-4.423-1.656-6.633-2.486
	c-0.657-5.119-2.338-7.861-2.489-14.096c1.458-0.897,3-2.087,4.147-3.319c13.286-0.091,29.636-1.478,41.462,0.83
	c0.706,1.211,1.502,2.377,2.487,3.317c-1.107,4.699-2.214,9.399-3.317,14.098c-2.591,0.26-4.633,0.88-6.634,1.656
	c0.523,1.454,0.158,0.807,0.827,1.66c2.115,7.049,7.967,13.085,11.614,19.07c0.272,0,0.55,0,0.826,0
	c2.062-7.787,8.989-12.612,11.61-19.9c0.206-0.8,0.648-0.314,0-0.83c-1.987-1.421-5.271-1.124-6.634-3.313
	c-2.392-3.032-2.563-8.69-2.489-14.099c1.211-0.708,2.378-1.501,3.319-2.489c7.646-0.216,37.106-2.029,41.463,0.83
	c2.224,1.463,2.405,3.658,2.486,7.464c-1.106,3.317-2.21,6.634-3.316,9.951c-11.915,1.225-10.527,4.639-16.588,10.779
	c0.058,5.794,1.93,6.118,3.316,9.951c-10.922,1.197-10.973,7.24-16.58,13.268c0.522,1.454,0.158,0.807,0.826,1.66
	c2.258,2.193,3.037,1.174,3.317,5.803C300.605,299.035,300.849,300.25,301.149,302.618z"/>
<path fill-rule="evenodd" clip-rule="evenodd" fill="none" stroke="#000000" stroke-width="4" stroke-miterlimit="10" d="
	M433.829,291.838c6.073-0.408,8.915-3.888,13.264-5.805c18.413-8.125,38.301-15.372,32.342-40.635c-0.83,0-1.66,0-2.486,0
	C466.08,261.477,434.143,267.837,433.829,291.838z"/>
<path fill-rule="evenodd" clip-rule="evenodd" fill="none" stroke="#000000" stroke-width="4" stroke-miterlimit="10" d="
	M71.447,259.496c-1.908,2.79-4.181,3.617-6.634,5.807c-7.082,6.313-13.938,14.165-18.244,23.215
	c-1.398,2.945-4.504,10.398-1.658,14.928c1.112,4.564,4.845,9.359,9.122,10.779c0-0.275,0-0.549,0-0.83
	c2.951-4.103,3.335-9.572,5.805-14.097c7.778-14.239,19.483-17.242,14.098-38.972C73.106,260.049,72.277,259.772,71.447,259.496z"/>
<path fill-rule="evenodd" clip-rule="evenodd" fill="none" stroke="#000000" stroke-width="4" stroke-miterlimit="10" d="
	M422.215,313.395c14.529-0.701,46.207-13.503,52.243-22.387c3.256-4.788,3.877-10.1,3.316-16.588
	c-0.985-0.719-0.928-0.678-1.656-1.656c-0.277,0-0.554,0-0.827,0c0,0.276,0,0.553,0,0.83c-5.767,3.481-11.563,8.084-17.417,11.61
	C445.146,292.873,423.673,294.982,422.215,313.395z"/>
<path fill-rule="evenodd" clip-rule="evenodd" fill="none" stroke="#000000" stroke-width="4" stroke-miterlimit="10" d="
	M76.423,282.714c-6.804,10.477-26.739,29.727-15.756,46.438c2.829,4.306,5.446,8.23,10.78,9.951c0-0.554,0-1.107,0-1.657
	c2.576-3.951,1.633-11.192,3.317-15.757c5.994-16.261,12.942-19.816,3.317-38.976C77.529,282.714,76.976,282.714,76.423,282.714z"/>
<path fill-rule="evenodd" clip-rule="evenodd" fill="none" stroke="#000000" stroke-width="4" stroke-miterlimit="10" d="
	M466.997,300.128c-13.486,12.259-59.358,13.224-61.366,33.998c0.557,0,1.106,0,1.66,0c4.299-2.54,10.302-1.116,15.758-2.486
	c18.729-4.704,45.619-7.292,45.605-30.682C468.104,300.682,467.548,300.404,466.997,300.128z"/>
<path fill-rule="evenodd" clip-rule="evenodd" fill="none" stroke="#000000" stroke-width="4" stroke-miterlimit="10" d="
	M87.203,305.105c-7.843,10.955-11.131,24.381-10.78,41.462c6.684,5.401,9.041,12.271,19.072,14.924c0-0.55,0-1.104,0-1.657
	c-3.221-5.32-0.261-19.54,0.83-24.048C99.649,322.051,96.138,311.003,87.203,305.105z"/>
<path fill-rule="evenodd" clip-rule="evenodd" fill="none" stroke="#000000" stroke-width="4" stroke-miterlimit="10" d="
	M102.129,325.836c-1.702,4.117-1.027,7.612-2.487,13.268c-6.659,25.802,5.726,34.828,24.048,41.462c0-0.83,0-1.657,0-2.487
	C110.929,361.879,126.555,333.455,102.129,325.836z"/>
<path fill-rule="evenodd" clip-rule="evenodd" fill="none" stroke="#000000" stroke-width="4" stroke-miterlimit="10" d="
	M452.07,325.836c-15.225,12.974-60.827,4.127-67.997,24.875c8.29,0,16.584,0,24.878,0c2.585-1.499,7.146,0.084,10.78-0.827
	c14.148-3.56,33.631-6.978,33.995-24.048C453.177,325.836,452.623,325.836,452.07,325.836z"/>
<path fill-rule="evenodd" clip-rule="evenodd" fill="none" stroke="#000000" stroke-width="4" stroke-miterlimit="10" d="
	M156.03,395.493c-1.226-5.439-6.289-9.907-8.292-14.928c-3.661-9.171-4.574-19.352-9.95-26.535
	c-3.548-4.74-9.784-5.995-14.098-9.953c-1.454,0.526-0.806,0.161-1.658,0.83c-1.363,2.055-0.932,7.383-0.83,10.78
	c2.854,4.262,1.378,12.278,3.317,17.414C129.136,385.333,139.94,394.896,156.03,395.493z"/>
<path fill-rule="evenodd" clip-rule="evenodd" fill="none" stroke="#000000" stroke-width="4" stroke-miterlimit="10" d="
	M428.853,349.884c-9.978,6.766-32.365,0.925-46.439,4.146c-10.949,2.508-16.055,7.113-24.048,9.951c0,0.273,0,0.55,0,0.826
	c0.276,0,0.554,0,0.83,0c5.062,4.461,16.908,0.881,24.878,2.49c22.645,4.572,42.022-3.772,49.756-17.414
	C432.169,349.884,430.509,349.884,428.853,349.884z"/>
<path fill-rule="evenodd" clip-rule="evenodd" fill="none" stroke="#000000" stroke-width="4" stroke-miterlimit="10" d="
	M146.08,359.834c1.55,24.996,17.866,46.817,45.609,46.436c0-0.55,0-1.103,0-1.656C173.648,392.459,173.082,363.188,146.08,359.834z"
	/>
<path fill-rule="evenodd" clip-rule="evenodd" fill="none" stroke="#000000" stroke-width="4" stroke-miterlimit="10" d="
	M354.219,368.128c-2.008,1.194-5.345,0.023-8.291,0.83c-5.419,1.481-11.209,4.322-15.754,6.631c0,0.553,0,1.106,0,1.659
	c18.298,0.985,39.178,12.131,59.703,5.808c7.717-2.383,11.601-7.73,17.414-11.614c0-0.273,0-0.55,0-0.826
	c-1.454-0.523-0.803-0.159-1.66-0.83C388.952,373.108,371.39,368.698,354.219,368.128z"/>
<path fill-rule="evenodd" clip-rule="evenodd" fill="none" stroke="#000000" stroke-width="4" stroke-miterlimit="10" d="
	M172.616,372.275c13.063,23.237,19.694,40.254,57.218,39.802c0-0.277,0-0.554,0-0.83
	C210.361,399.774,201.069,372.653,172.616,372.275z"/>
<path fill-rule="evenodd" clip-rule="evenodd" fill="none" stroke="#000000" stroke-width="4" stroke-miterlimit="10" d="
	M313.586,378.908c-3.741,2.281-10.574,2.524-14.097,4.147c0,0.273,0,0.55,0,0.826c0.276,0,0.553,0,0.83,0
	c2.888,2.632,6.741,2.464,10.78,4.147c9.073,3.782,30.874,13.577,45.609,9.95c7.959-1.96,13.547-5.915,19.9-9.12
	c0-0.554,0-1.107,0-1.66c-2.49,0-4.977,0-7.464,0c-3.351-1.998-12.653-0.854-19.074-2.487
	C338.6,381.794,328.942,379.026,313.586,378.908z"/>
<path fill-rule="evenodd" clip-rule="evenodd" fill="none" stroke="#000000" stroke-width="4" stroke-miterlimit="10" d="
	M203.297,380.565c0,0.554,0,1.106,0,1.656c3.268,2.372,5.018,5.885,7.464,9.124c6.21,8.227,21.816,20.391,33.168,23.218
	c6.815,1.697,20.438,1.488,24.048-2.486c-0.273,0-0.554,0-0.83,0c-6.532-5.122-14.936-7.684-21.56-12.438
	C233.011,390.61,225.449,380.876,203.297,380.565z"/>
<path fill-rule="evenodd" clip-rule="evenodd" fill="none" stroke="#000000" stroke-width="4" stroke-miterlimit="10" d="
	M305.296,410.42c0-0.833,0-1.66,0-2.49c-23.12-1.603-43.53-31.879-70.487-21.561c0,0.276,0,0.553,0,0.83c0.275,0,0.552,0,0.828,0
	c10.168,10.689,23.685,18.48,38.977,24.048c3.975,1.451,11.381,4.153,18.241,2.49C296.591,412.826,300.994,411.001,305.296,410.42z"
	/>
<path fill-rule="evenodd" clip-rule="evenodd" fill="none" stroke="#000000" stroke-width="4" stroke-miterlimit="10" d="
	M272.124,384.712c-0.985,0.675-3.806,1.235-4.977,1.657c0,0.276,0,0.553,0,0.83c0.276,0,0.557,0,0.83,0
	c3.205,3.276,7.497,4.133,11.61,6.634c19.058,11.583,39.238,18.736,63.023,7.464c0-0.277,0-0.554,0-0.83c-0.277,0-0.554,0-0.83,0
	c-4.535-3.067-12.697-2.322-18.244-4.147c-10.457-3.438-20.455-9.002-31.512-11.607
	C285.392,384.712,278.758,384.712,272.124,384.712z"/>
<path fill-rule="evenodd" clip-rule="evenodd" fill="none" d="M439.748,254.293c0,72.769-81.704,131.761-182.492,131.761
	c-100.787,0-182.492-58.992-182.492-131.761"/>
<text transform="matrix(0.8818 0.4717 -0.4717 0.8818 137.9966 334.8896)"><tspan x="0" y="0" font-family="'Verdana'" font-size="57">H</tspan><tspan x="45.707" y="-1.472" font-family="'Verdana'" font-size="57" rotate="-9.738">i</tspan><tspan x="63.162" y="-4.191" font-family="'Verdana'" font-size="57" rotate="-16.406">c</tspan><tspan x="94.193" y="-13.377" font-family="'Verdana'" font-size="57" rotate="-25.114">o</tspan><tspan x="127.215" y="-29.48" font-family="'Verdana'" font-size="57" rotate="-32.28">,</tspan><tspan x="146.089" y="-41.504" font-family="'Verdana'" font-size="57" rotate="-37.772"> </tspan><tspan x="164.095" y="-54.971" font-family="'Verdana'" font-size="57" rotate="-45.742">T</tspan><tspan x="191.278" y="-82.957" font-family="'Verdana'" font-size="57" rotate="-58.218">X</tspan></text>
</svg>
